<?xml version="1.0" encoding="UTF-8"?>
<svg width="400" height="400" viewBox="0 0 400 400" xmlns="http://www.w3.org/2000/svg">
  <defs>
    <!-- Gradient for the center mill circle -->
    <linearGradient id="millGradient" x1="0%" y1="0%" x2="100%" y2="100%">
      <stop offset="0%" style="stop-color:#7ab8ba;stop-opacity:1" />
      <stop offset="100%" style="stop-color:#5f9ea0;stop-opacity:1" />
    </linearGradient>

    <!-- Gradient for accent elements (purple) -->
    <linearGradient id="accentGradient" x1="0%" y1="0%" x2="100%" y2="100%">
      <stop offset="0%" style="stop-color:#8b7bb5;stop-opacity:1" />
      <stop offset="100%" style="stop-color:#6b5b95;stop-opacity:1" />
    </linearGradient>
  </defs>

  <!-- Background (transparent) -->
  <rect width="400" height="400" fill="none"/>

  <!-- Spinning outer ring of characters -->
  <g id="charRing" font-family="'Segoe UI', Arial, sans-serif" font-weight="bold">
    <animateTransform attributeName="transform" type="rotate" from="0 200 200" to="360 200 200" dur="8s" repeatCount="indefinite"/>

    <!-- Characters arranged in a circle at radius 140 -->
    <text x="200" y="60" font-size="28" fill="#6b5b95" text-anchor="middle">A</text>
    <text x="299" y="101" font-size="28" fill="#5f9ea0" text-anchor="middle">0</text>
    <text x="340" y="200" font-size="28" fill="#6b5b95" text-anchor="middle">1</text>
    <text x="299" y="299" font-size="28" fill="#5f9ea0" text-anchor="middle">B</text>
    <text x="200" y="340" font-size="28" fill="#6b5b95" text-anchor="middle">0</text>
    <text x="101" y="299" font-size="28" fill="#5f9ea0" text-anchor="middle">C</text>
    <text x="60" y="200" font-size="28" fill="#6b5b95" text-anchor="middle">1</text>
    <text x="101" y="101" font-size="28" fill="#5f9ea0" text-anchor="middle">D</text>
  </g>

  <!-- Second ring spinning opposite direction -->
  <g id="charRing2" font-family="'Segoe UI', Arial, sans-serif" font-weight="bold">
    <animateTransform attributeName="transform" type="rotate" from="360 200 200" to="0 200 200" dur="6s" repeatCount="indefinite"/>

    <!-- Characters at radius 110 -->
    <text x="200" y="90" font-size="22" fill="#5f9ea0" text-anchor="middle" opacity="0.8">E</text>
    <text x="278" y="122" font-size="22" fill="#6b5b95" text-anchor="middle" opacity="0.8">1</text>
    <text x="310" y="200" font-size="22" fill="#5f9ea0" text-anchor="middle" opacity="0.8">F</text>
    <text x="278" y="278" font-size="22" fill="#6b5b95" text-anchor="middle" opacity="0.8">0</text>
    <text x="200" y="310" font-size="22" fill="#5f9ea0" text-anchor="middle" opacity="0.8">G</text>
    <text x="122" y="278" font-size="22" fill="#6b5b95" text-anchor="middle" opacity="0.8">1</text>
    <text x="90" y="200" font-size="22" fill="#5f9ea0" text-anchor="middle" opacity="0.8">H</text>
    <text x="122" y="122" font-size="22" fill="#6b5b95" text-anchor="middle" opacity="0.8">0</text>
  </g>

  <!-- Circular arrows (processing indicators) - spinning -->
  <g id="arrows">
    <animateTransform attributeName="transform" type="rotate" from="0 200 200" to="360 200 200" dur="4s" repeatCount="indefinite"/>

    <!-- Top arc arrow -->
    <path d="M 140 130 A 85 85 0 0 1 260 130" fill="none" stroke="#6b5b95" stroke-width="6" stroke-linecap="round"/>
    <polygon points="260,130 248,122 252,138" fill="#6b5b95"/>

    <!-- Bottom arc arrow -->
    <path d="M 260 270 A 85 85 0 0 1 140 270" fill="none" stroke="#6b5b95" stroke-width="6" stroke-linecap="round"/>
    <polygon points="140,270 152,278 148,262" fill="#6b5b95"/>

    <!-- Left arc arrow -->
    <path d="M 130 260 A 85 85 0 0 1 130 140" fill="none" stroke="#5f9ea0" stroke-width="6" stroke-linecap="round"/>
    <polygon points="130,140 122,152 138,148" fill="#5f9ea0"/>

    <!-- Right arc arrow -->
    <path d="M 270 140 A 85 85 0 0 1 270 260" fill="none" stroke="#5f9ea0" stroke-width="6" stroke-linecap="round"/>
    <polygon points="270,260 278,248 262,252" fill="#5f9ea0"/>
  </g>

  <!-- Center mill wheel (spinning) -->
  <g id="millWheel">
    <animateTransform attributeName="transform" type="rotate" from="0 200 200" to="360 200 200" dur="3s" repeatCount="indefinite"/>

    <circle cx="200" cy="200" r="65" fill="url(#millGradient)" stroke="#4a8a8c" stroke-width="5"/>

    <!-- Mill wheel cross spokes -->
    <line x1="200" y1="145" x2="200" y2="255" stroke="#ffffff" stroke-width="8" stroke-linecap="round"/>
    <line x1="145" y1="200" x2="255" y2="200" stroke="#ffffff" stroke-width="8" stroke-linecap="round"/>

    <!-- Diagonal spokes -->
    <line x1="161" y1="161" x2="239" y2="239" stroke="#ffffff" stroke-width="5" stroke-linecap="round" opacity="0.6"/>
    <line x1="239" y1="161" x2="161" y2="239" stroke="#ffffff" stroke-width="5" stroke-linecap="round" opacity="0.6"/>
  </g>

  <!-- Center hub (stationary) -->
  <circle cx="200" cy="200" r="20" fill="url(#accentGradient)" stroke="#5a4a85" stroke-width="3"/>
  <circle cx="200" cy="200" r="8" fill="#ffffff"/>
</svg>
